<svg width="31" height="31" viewBox="0 0 31 31" fill="none" xmlns="http://www.w3.org/2000/svg">
<g clip-path="url(#clip0_201_159)">
<path d="M26.6334 0.460449H4.13342C2.0653 0.460449 0.383423 2.14232 0.383423 4.21045V26.7104C0.383423 28.7786 2.0653 30.4604 4.13342 30.4604H26.6334C28.7015 30.4604 30.3834 28.7786 30.3834 26.7104V4.21045C30.3834 2.14232 28.7015 0.460449 26.6334 0.460449Z" fill="white"/>
<path fill-rule="evenodd" clip-rule="evenodd" d="M25.6959 15.4604H21.0084V11.7104C21.0084 10.6754 21.8484 10.7729 22.8834 10.7729H24.7584V6.08545H21.0084C19.5166 6.08545 18.0858 6.67808 17.0309 7.73297C15.9761 8.78787 15.3834 10.2186 15.3834 11.7104V15.4604H11.6334V20.1479H15.3834V30.4604H21.0084V20.1479H23.8209L25.6959 15.4604Z" fill="#212121"/>
</g>
<defs>
<clipPath id="clip0_201_159">
<rect x="0.383423" y="0.460449" width="30" height="30" rx="6" fill="white"/>
</clipPath>
</defs>
</svg>
