<svg width="31" height="31" viewBox="0 0 31 31" fill="none" xmlns="http://www.w3.org/2000/svg">
<g clip-path="url(#clip0_201_162)">
<path d="M-48.8447 -48.7668H79.6141V79.692H-48.8447V-48.7668Z" fill="white"/>
<path d="M11.7056 15.4628C11.7056 13.4306 13.3526 11.7827 15.3848 11.7827C17.417 11.7827 19.0649 13.4306 19.0649 15.4628C19.0649 17.495 17.417 19.1429 15.3848 19.1429C13.3526 19.1429 11.7056 17.495 11.7056 15.4628ZM9.71614 15.4628C9.71614 18.5936 12.254 21.1314 15.3848 21.1314C18.5156 21.1314 21.0534 18.5936 21.0534 15.4628C21.0534 12.332 18.5156 9.79415 15.3848 9.79415C12.254 9.79415 9.71614 12.332 9.71614 15.4628ZM19.953 9.56944C19.953 10.3006 20.546 10.8945 21.2781 10.8945C22.0093 10.8945 22.6032 10.3006 22.6032 9.56944C22.6032 8.83823 22.0102 8.24524 21.2781 8.24524C20.546 8.24524 19.953 8.83823 19.953 9.56944ZM10.9244 24.4486C9.84812 24.3996 9.26315 24.2203 8.87436 24.0687C8.35895 23.8681 7.99156 23.6291 7.60456 23.243C7.21845 22.8569 6.97857 22.4895 6.77883 21.9741C6.62724 21.5853 6.448 21.0003 6.39896 19.924C6.34546 18.7604 6.33476 18.4108 6.33476 15.4628C6.33476 12.5148 6.34635 12.1661 6.39896 11.0015C6.448 9.92523 6.62813 9.34116 6.77883 8.95148C6.97947 8.43606 7.21845 8.06868 7.60456 7.68167C7.99067 7.29556 8.35806 7.05569 8.87436 6.85594C9.26315 6.70435 9.84812 6.52512 10.9244 6.47607C12.0881 6.42257 12.4377 6.41187 15.3848 6.41187C18.3328 6.41187 18.6815 6.42346 19.846 6.47607C20.9223 6.52512 21.5064 6.70524 21.8961 6.85594C22.4115 7.05569 22.7789 7.29556 23.1659 7.68167C23.552 8.06779 23.791 8.43606 23.9916 8.95148C24.1432 9.34026 24.3224 9.92523 24.3715 11.0015C24.425 12.1661 24.4357 12.5148 24.4357 15.4628C24.4357 18.4099 24.425 18.7595 24.3715 19.924C24.3224 21.0003 24.1423 21.5853 23.9916 21.9741C23.791 22.4895 23.552 22.8569 23.1659 23.243C22.7798 23.6291 22.4115 23.8681 21.8961 24.0687C21.5073 24.2203 20.9223 24.3996 19.846 24.4486C18.6823 24.5021 18.3328 24.5128 15.3848 24.5128C12.4377 24.5128 12.0881 24.5021 10.9244 24.4486ZM10.8335 4.49022C9.65818 4.54372 8.85564 4.73009 8.15386 5.00296C7.428 5.28474 6.81271 5.66283 6.19832 6.27633C5.58482 6.88983 5.20673 7.50511 4.92495 8.23186C4.65209 8.93364 4.46572 9.73619 4.41222 10.9115C4.35782 12.0885 4.34534 12.4648 4.34534 15.4628C4.34534 18.4607 4.35782 18.837 4.41222 20.0141C4.46572 21.1894 4.65209 21.9919 4.92495 22.6937C5.20673 23.4196 5.58393 24.0358 6.19832 24.6493C6.81182 25.2628 7.42711 25.6399 8.15386 25.9226C8.85653 26.1955 9.65818 26.3819 10.8335 26.4354C12.0114 26.4889 12.3868 26.5022 15.3848 26.5022C18.3836 26.5022 18.759 26.4898 19.9361 26.4354C21.1114 26.3819 21.9139 26.1955 22.6157 25.9226C23.3416 25.6399 23.9568 25.2628 24.5712 24.6493C25.1847 24.0358 25.5619 23.4196 25.8446 22.6937C26.1175 21.9919 26.3047 21.1894 26.3573 20.0141C26.4108 18.8362 26.4233 18.4607 26.4233 15.4628C26.4233 12.4648 26.4108 12.0885 26.3573 10.9115C26.3038 9.73619 26.1175 8.93364 25.8446 8.23186C25.5619 7.506 25.1847 6.89072 24.5712 6.27633C23.9577 5.66283 23.3416 5.28474 22.6166 5.00296C21.9139 4.73009 21.1114 4.54283 19.937 4.49022C18.7599 4.43672 18.3836 4.42334 15.3857 4.42334C12.3868 4.42334 12.0114 4.43582 10.8335 4.49022Z" fill="#212121"/>
</g>
<defs>
<clipPath id="clip0_201_162">
<rect x="0.383423" y="0.460449" width="30" height="30.0036" rx="6" fill="white"/>
</clipPath>
</defs>
</svg>
